:FULLY-SPECIFIED
:FORCE-ALL-JOINTS-BE-3DOF
:DEGREES
714
root -11.6096 13.9336 -38.3047 152.57 -59.6749 -147.879
lfemur -64.1214 26.2468 0.744475
ltibia 75.2939 -0 0
lfoot -8.64154 -8.45329 -0.028601
ltoes -2.42507 0 0
rfemur 10.7246 -9.54908 11.12
rtibia 39.5128 -0 0
rfoot -25.085 -27.7312 0.00120272
rtoes -26.188 0 0
lowerback 11.9144 1.36128 9.47715
upperback -1.76379 3.43086 5.93714
thorax -8.44519 1.23248 0.422106
lowerneck -4.85985 5.25652 0.938395
upperneck 4.35439 6.88522 1.15953
head 2.14517 3.47683 0.416506
lclavicle 3.05134e-14 -2.96189e-14 0
lhumerus 66.0792 18.0561 111.441
lradius 6.65528 -0 0
lwrist -84.5007 0 0
lhand -36.0351 37.2754 0.267488
lfingers 7.12502 -0 0
lthumb -9.13879 67.2455 0.287079
rclavicle 3.05134e-14 -2.96189e-14 0
rhumerus -83.1442 16.9962 -97.5102
rradius 116.028 -0 0
rwrist -68.8457 0 0
rhand -10.9948 -43.0659 -0.0904162
rfingers 7.12502 -0 0
rthumb 15.0383 -72.5276 -0.104345
715
root -11.6195 13.93 -38.3082 152.524 -59.736 -147.761
lfemur -64.2684 26.2966 0.666955
ltibia 75.45 -0 0
lfoot -8.73997 -8.47123 -0.0310641
ltoes -2.44162 0 0
rfemur 10.8312 -9.63174 11.1371
rtibia 39.3135 -0 0
rfoot -25.0606 -27.7854 0.00139009
rtoes -26.4537 0 0
lowerback 11.879 1.3556 9.50846
upperback -1.77075 3.42353 5.9466
thorax -8.43175 1.22786 0.417086
lowerneck -4.81145 5.24164 0.968152
upperneck 4.33595 6.86576 1.12834
head 2.13306 3.46664 0.400086
lclavicle 3.05134e-14 -2.96189e-14 0
lhumerus 66.0123 17.9818 111.313
lradius 6.76578 -0 0
lwrist -84.4755 0 0
lhand -35.9684 37.2229 0.261732
lfingers 7.12502 -0 0
lthumb -9.07454 67.1916 0.28087
rclavicle 3.05134e-14 -2.96189e-14 0
rhumerus -83.0905 17.0207 -97.5838
rradius 116.001 -0 0
rwrist -68.6424 0 0
rhand -10.6137 -42.6154 -0.0558649
rfingers 7.12502 -0 0
rthumb 15.4046 -72.0428 -0.0693656
716
root -11.6293 13.9264 -38.3117 152.473 -59.8065 -147.638
lfemur -64.4193 26.3394 0.580716
ltibia 75.6076 -0 0
lfoot -8.83755 -8.48576 -0.0334412
ltoes -2.46458 0 0
rfemur 10.929 -9.71982 11.1586
rtibia 39.1214 -0 0
rfoot -25.036 -27.8399 0.0015954
rtoes -26.7195 0 0
lowerback 11.8451 1.35019 9.53728
upperback -1.77763 3.41636 5.95512
thorax -8.41911 1.22343 0.41233
lowerneck -4.76123 5.22375 0.995935
upperneck 4.31588 6.84242 1.0981
head 2.12027 3.4545 0.384214
lclavicle 3.05134e-14 -2.96189e-14 0
lhumerus 65.923 17.8943 111.16
lradius 6.90842 -0 0
lwrist -84.4117 0 0
lhand -35.8861 37.1638 0.254268
lfingers 7.12502 -0 0
lthumb -8.99523 67.1308 0.272823
rclavicle 3.05134e-14 -2.96189e-14 0
rhumerus -82.9926 17.0584 -97.649
rradius 115.969 -0 0
rwrist -68.4233 0 0
rhand -10.2167 -42.1449 -0.0213934
rfingers 7.12502 -0 0
rthumb 15.7861 -71.5359 -0.0343998
717
root -11.6392 13.9228 -38.3152 152.416 -59.8857 -147.51
lfemur -64.5733 26.3751 0.486698
ltibia 75.766 -0 0
lfoot -8.93371 -8.49681 -0.0357008
ltoes -2.4938 0 0
rfemur 11.0175 -9.81218 11.1841
rtibia 38.9377 -0 0
rfoot -25.0113 -27.8938 0.00181669
rtoes -26.9845 0 0
lowerback 11.8127 1.34507 9.56338
upperback -1.78435 3.40938 5.96265
thorax -8.40727 1.21922 0.407928
lowerneck -4.70942 5.20327 1.02188
upperneck 4.29426 6.81577 1.06868
head 2.10683 3.4407 0.368843
lclavicle 3.05134e-14 -2.96189e-14 0
lhumerus 65.8135 17.7947 110.984
lradius 7.08012 -0 0
lwrist -84.3116 0 0
lhand -35.7894 37.0988 0.245284
lfingers 7.12502 -0 0
lthumb -8.90211 67.0633 0.26314
rclavicle 3.05134e-14 -2.96189e-14 0
rhumerus -82.8536 17.1084 -97.7057
rradius 115.931 -0 0
rwrist -68.1894 0 0
rhand -9.80534 -41.6572 0.0122976
rfingers 7.12502 -0 0
rthumb 16.1813 -71.0101 -0.00016387
718
root -11.649 13.9192 -38.3187 152.356 -59.9726 -147.38
lfemur -64.7294 26.4037 0.385844
ltibia 75.9242 -0 0
lfoot -9.02788 -8.50431 -0.0378111
ltoes -2.52915 0 0
rfemur 11.0964 -9.90769 11.213
rtibia 38.7636 -0 0
rfoot -24.9867 -27.9468 0.0020513
rtoes -27.2481 0 0
lowerback 11.7819 1.34027 9.58654
upperback -1.79085 3.40258 5.96916
thorax -8.39618 1.21524 0.403969
lowerneck -4.65627 5.18064 1.04614
upperneck 4.27118 6.78638 1.03998
head 2.09283 3.42552 0.353921
lclavicle 3.05134e-14 -2.96189e-14 0
lhumerus 65.6862 17.6841 110.788
lradius 7.27781 -0 0
lwrist -84.1778 0 0
lhand -35.6797 37.0281 0.234968
lfingers 7.12502 -0 0
lthumb -8.79642 66.9898 0.252024
rclavicle 3.05134e-14 -2.96189e-14 0
rhumerus -82.6765 17.1695 -97.7533
rradius 115.886 -0 0
rwrist -67.9417 0 0
rhand -9.38142 -41.1553 0.0445629
rfingers 7.12502 -0 0
rthumb 16.5885 -70.4683 0.032683
719
root -11.6589 13.9155 -38.3221 152.292 -60.0663 -147.247
lfemur -64.887 26.4252 0.279104
ltibia 76.0813 -0 0
lfoot -9.11949 -8.50821 -0.0397401
ltoes -2.5705 0 0
rfemur 11.1653 -10.0052 11.2447
rtibia 38.6002 -0 0
rfoot -24.9621 -27.9982 0.00229586
rtoes -27.5096 0 0
lowerback 11.7528 1.33581 9.60652
upperback -1.79708 3.39597 5.97462
thorax -8.38584 1.2115 0.400546
lowerneck -4.60203 5.15631 1.06885
upperneck 4.24671 6.75484 1.01187
head 2.0783 3.40925 0.3394
lclavicle 3.05134e-14 -2.96189e-14 0
lhumerus 65.5433 17.5636 110.573
lradius 7.49841 -0 0
lwrist -84.0125 0 0
lhand -35.5582 36.9524 0.223506
lfingers 7.12502 -0 0
lthumb -8.67943 66.9108 0.239673
rclavicle 3.05134e-14 -2.96189e-14 0
rhumerus -82.4642 17.2407 -97.7915
rradius 115.835 -0 0
rwrist -67.6809 0 0
rhand -8.94656 -40.6419 0.0748188
rfingers 7.12502 -0 0
rthumb 17.0062 -69.9137 0.0635436
720
root -11.6687 13.9119 -38.3256 152.227 -60.166 -147.113
lfemur -65.0451 26.4396 0.167429
ltibia 76.2363 -0 0
lfoot -9.20795 -8.50845 -0.0414563
ltoes -2.6177 0 0
rfemur 11.2238 -10.1036 11.2788
rtibia 38.4488 -0 0
rfoot -24.9378 -28.0474 0.00254628
rtoes -27.7682 0 0
lowerback 11.7253 1.33173 9.62309
upperback -1.80295 3.38958 5.97899
thorax -8.37622 1.20802 0.397746
lowerneck -4.54694 5.13071 1.09016
upperneck 4.22093 6.7217 0.984229
head 2.06332 3.39217 0.325231
lclavicle 3.05134e-14 -2.96189e-14 0
lhumerus 65.3871 17.4343 110.342
lradius 7.73885 -0 0
lwrist -83.8181 0 0
lhand -35.4264 36.872 0.211084
lfingers 7.12502 -0 0
lthumb -8.55238 66.8268 0.226289
rclavicle 3.05134e-14 -2.96189e-14 0
rhumerus -82.22 17.3209 -97.8198
rradius 115.777 -0 0
rwrist -67.4082 0 0
rhand -8.50247 -40.1201 0.102548
rfingers 7.12502 -0 0
rthumb 17.4328 -69.3492 0.0918885
721
root -11.6786 13.9083 -38.3291 152.161 -60.2708 -146.98
lfemur -65.203 26.4469 0.0517709
ltibia 76.3884 -0 0
lfoot -9.2927 -8.50497 -0.0429283
ltoes -2.67062 0 0
rfemur 11.2716 -10.2018 11.3147
rtibia 38.3104 -0 0
rfoot -24.9139 -28.0938 0.00279784
rtoes -28.0232 0 0
lowerback 11.6997 1.32805 9.63602
upperback -1.80841 3.38341 5.98224
thorax -8.36729 1.20482 0.395662
lowerneck -4.49126 5.10428 1.1102
upperneck 4.19391 6.68756 0.956945
head 2.04793 3.37458 0.311362
lclavicle 3.05134e-14 -2.96189e-14 0
lhumerus 65.2199 17.2973 110.096
lradius 7.99606 -0 0
lwrist -83.5969 0 0
lhand -35.2853 36.7874 0.197883
lfingers 7.12502 -0 0
lthumb -8.41654 66.7382 0.212065
rclavicle 3.05134e-14 -2.96189e-14 0
rhumerus -81.9467 17.409 -97.8379
rradius 115.711 -0 0
rwrist -67.1244 0 0
rhand -8.05082 -39.5927 0.127304
rfingers 7.12502 -0 0
rthumb 17.8665 -68.778 0.11726
722
root -11.6884 13.9047 -38.3326 152.096 -60.3798 -146.848
lfemur -65.3597 26.447 -0.0669154
ltibia 76.5367 -0 0
lfoot -9.37317 -8.49771 -0.0441253
ltoes -2.72912 0 0
rfemur 11.3082 -10.2986 11.3519
rtibia 38.1862 -0 0
rfoot -24.8904 -28.1368 0.00304516
rtoes -28.2738 0 0
lowerback 11.6759 1.3248 9.64507
upperback -1.8134 3.37747 5.98433
thorax -8.35905 1.20192 0.394383
lowerneck -4.43522 5.07745 1.12913
upperneck 4.16575 6.65298 0.929897
head 2.0322 3.35675 0.297745
lclavicle 3.05134e-14 -2.96189e-14 0
lhumerus 65.0441 17.1539 109.838
lradius 8.26695 -0 0
lwrist -83.3515 0 0
lhand -35.1365 36.6991 0.18408
lfingers 7.12502 -0 0
lthumb -8.27315 66.6458 0.197193
rclavicle 3.05134e-14 -2.96189e-14 0
rhumerus -81.6473 17.5039 -97.8453
rradius 115.638 -0 0
rwrist -66.8304 0 0
rhand -7.59332 -39.0626 0.148714
rfingers 7.12502 -0 0
rthumb 18.3059 -68.2031 0.139277
723
root -11.6983 13.9011 -38.3361 152.032 -60.4921 -146.719
lfemur -65.5145 26.4401 -0.187676
ltibia 76.6802 -0 0
lfoot -9.44877 -8.48661 -0.0450176
ltoes -2.79373 0 0
rfemur 11.3333 -10.3928 11.3899
rtibia 38.0774 -0 0
rfoot -24.8675 -28.1759 0.00328229
rtoes -28.5193 0 0
lowerback 11.6541 1.322 9.65002
upperback -1.81784 3.37178 5.98523
thorax -8.35146 1.19933 0.393998
lowerneck -4.37907 5.05067 1.14709
upperneck 4.1365 6.61854 0.902963
head 2.01617 3.33897 0.284329
lclavicle 3.05134e-14 -2.96189e-14 0
lhumerus 64.8617 17.0051 109.569
lradius 8.54846 -0 0
lwrist -83.0841 0 0
lhand -34.9811 36.6075 0.169849
lfingers 7.12502 -0 0
lthumb -8.12348 66.5498 0.18186
rclavicle 3.05134e-14 -2.96189e-14 0
rhumerus -81.325 17.6043 -97.8417
rradius 115.556 -0 0
rwrist -66.5272 0 0
rhand -7.1317 -38.5327 0.166482
rfingers 7.12502 -0 0
rthumb 18.7492 -67.6275 0.157635
724
root -11.7081 13.8974 -38.3396 151.97 -60.6068 -146.595
lfemur -65.6666 26.426 -0.309556
ltibia 76.818 -0 0
lfoot -9.51895 -8.47161 -0.045576
ltoes -2.8623 0 0
rfemur 11.3465 -10.4833 11.4281
rtibia 37.9851 -0 0
rfoot -24.8452 -28.2105 0.00350277
rtoes -28.759 0 0
lowerback 11.6343 1.31968 9.65064
upperback -1.82168 3.36633 5.98491
thorax -8.3445 1.19707 0.394599
lowerneck -4.32305 5.02437 1.16423
upperneck 4.10625 6.58481 0.876022
head 1.99992 3.32154 0.271064
lclavicle 3.05134e-14 -2.96189e-14 0
lhumerus 64.675 16.8522 109.293
lradius 8.83752 -0 0
lwrist -82.7971 0 0
lhand -34.8206 36.5131 0.155357
lfingers 7.12502 -0 0
lthumb -7.96877 66.451 0.166247
rclavicle 3.05134e-14 -2.96189e-14 0
rhumerus -80.9827 17.7091 -97.8266
rradius 115.465 -0 0
rwrist -66.2157 0 0
rhand -6.66767 -38.0061 0.180389
rfingers 7.12502 -0 0
rthumb 19.1947 -67.0545 0.172109
